<?xml version="1.0" encoding="UTF-8" standalone="no"?>
<!-- Created with Inkscape (http://www.inkscape.org/) -->

<svg
   xmlns:dc="http://purl.org/dc/elements/1.1/"
   xmlns:cc="http://creativecommons.org/ns#"
   xmlns:rdf="http://www.w3.org/1999/02/22-rdf-syntax-ns#"
   xmlns:svg="http://www.w3.org/2000/svg"
   xmlns="http://www.w3.org/2000/svg"
   xmlns:sodipodi="http://sodipodi.sourceforge.net/DTD/sodipodi-0.dtd"
   xmlns:inkscape="http://www.inkscape.org/namespaces/inkscape"
   width="136.09448"
   height="136"
   viewBox="0 0 136.09448 136"
   id="svg12101"
   version="1.1"
   inkscape:version="0.92.4 5da689c313, 2019-01-14"
   sodipodi:docname="Monochrom-SolusIcon.svg">
  <defs
     id="defs12103" />
  <sodipodi:namedview
     id="base"
     pagecolor="#ffffff"
     bordercolor="#666666"
     borderopacity="1.0"
     inkscape:pageopacity="0"
     inkscape:pageshadow="2"
     inkscape:zoom="4.9474077"
     inkscape:cx="28.603067"
     inkscape:cy="80.414871"
     inkscape:document-units="px"
     inkscape:current-layer="layer1"
     showgrid="true"
     units="px"
     inkscape:window-width="2560"
     inkscape:window-height="1355"
     inkscape:window-x="2560"
     inkscape:window-y="0"
     inkscape:window-maximized="1"
     inkscape:snap-bbox="true"
     inkscape:bbox-nodes="true"
     inkscape:snap-bbox-edge-midpoints="true"
     inkscape:object-paths="true"
     inkscape:object-nodes="true"
     inkscape:snap-intersection-paths="true"
     inkscape:snap-smooth-nodes="true"
     inkscape:snap-midpoints="true">
    <inkscape:grid
       type="xygrid"
       id="grid4163" />
  </sodipodi:namedview>
  <metadata
     id="metadata12106">
    <rdf:RDF>
      <cc:Work
         rdf:about="">
        <dc:format>image/svg+xml</dc:format>
        <dc:type
           rdf:resource="http://purl.org/dc/dcmitype/StillImage" />
        <dc:title></dc:title>
      </cc:Work>
    </rdf:RDF>
  </metadata>
  <g
     inkscape:label="Ebene 1"
     inkscape:groupmode="layer"
     id="layer1"
     transform="translate(0,-916.36218)">
    <path
       style="fill:#4c5263;fill-opacity:1;stroke:none;stroke-width:3;stroke-miterlimit:4;stroke-dasharray:none;stroke-opacity:1"
       d="M 45 -0.0625 C 44.011926 3.1650286 42.962966 6.3726443 41.880859 9.5683594 A 63.999992 63.999992 0 0 0 4 67.9375 A 63.999992 63.999992 0 0 0 6.8242188 86.669922 C 6.2172698 87.759856 5.6125648 88.851425 5 89.9375 L 4 91.9375 L 5.5410156 92.732422 C 6.5962369 93.222321 7.9239482 93.587511 9.5957031 93.953125 A 63.999992 63.999992 0 0 0 14.960938 103.71875 C 37.153326 105.61327 62.020073 106.53793 83.466797 103.42188 C 100.99543 100.87502 116.11774 95.598657 125.99023 86.291016 C 126.11759 86.173123 126.24055 86.054387 126.36523 85.935547 C 126.55479 85.752374 126.74221 85.567113 126.92773 85.380859 C 127.84279 84.469213 128.68575 83.5351 129.46094 82.587891 C 129.52498 82.510017 129.5909 82.433819 129.6543 82.355469 C 129.85198 82.110075 130.04128 81.863788 130.23047 81.617188 C 130.3271 81.491565 130.42841 81.369003 130.52344 81.242188 A 63.999992 63.999992 0 0 0 130.52539 81.228516 C 132.36828 78.765491 133.81506 76.266257 135 73.9375 L 136 71.9375 L 134 69.9375 C 133.37116 69.275277 132.69899 68.640611 132 68.023438 A 63.999992 63.999992 0 0 0 132 67.9375 A 63.999992 63.999992 0 0 0 68 3.9375 A 63.999992 63.999992 0 0 0 50.330078 6.4785156 C 47.804526 2.7689447 45.810612 0.17921424 45 -0.0625 z M 47 8.9375 C 52.121015 17.946395 56.720097 24.028582 61.767578 32.066406 C 61.767578 32.066406 61.767578 32.068359 61.767578 32.068359 C 63.449804 34.747254 65.182 37.64365 67 40.9375 C 67.72571 49.33561 70.582425 92.696825 70.890625 96.703125 C 68.733065 96.526825 57.342781 95.610481 42.931641 94.113281 C 35.075231 93.296981 26.983149 92.370441 20.412109 91.431641 C 20.405889 91.430752 20.400749 91.430575 20.394531 91.429688 L 10 88.9375 C 12.945657 83.73286 16.324734 77.789757 19.837891 71.386719 C 21.594469 68.1852 23.383667 64.868614 25.169922 61.472656 C 34.101146 44.492829 42.936594 25.520069 47 8.9375 z M 72 42.9375 C 71.99999 42.9375 99.089393 64.264324 110.77734 90.451172 C 110.72406 90.67248 110.67766 90.890616 110.61719 91.115234 C 96.693436 97.850709 83.879221 96.985062 76 96.9375 C 81.64724 82.43656 81.63852 62.79292 72 42.9375 z M 91.011719 54.941406 C 95.983985 56.308078 101.63356 58.03488 107 59.9375 C 116.58268 63.334956 125.48794 67.985502 130.73633 72.705078 C 127.7548 78.145808 123.23558 84.358325 115.50586 88.242188 C 116.07808 82.644689 114.57853 77.646826 111.71875 73.173828 C 110.46158 70.923 108.88044 68.824382 107 66.9375 C 102.77112 62.694148 97.214731 59.095449 91.371094 55.185547 C 91.24971 55.10398 91.133396 55.022982 91.011719 54.941406 z M 127.82617 90.599609 C 117.06838 100.07461 101.4125 105.17812 84.087891 107.69531 C 63.296144 110.71618 39.774189 110.027 18.417969 108.33594 A 63.999992 63.999992 0 0 0 68 131.9375 A 63.999992 63.999992 0 0 0 127.82617 90.599609 z M 15.154297 104.03711 A 63.999992 63.999992 0 0 0 15.230469 104.14453 C 15.205705 104.10837 15.178957 104.07332 15.154297 104.03711 z "
       transform="translate(0,916.36218)"
       id="circle4804-0" />
    <circle
       style="fill:#500000;fill-opacity:0;stroke:none;stroke-width:3;stroke-miterlimit:4;stroke-dasharray:none;stroke-opacity:1"
       id="circle4812-0"
       cx="68.075081"
       cy="984.22473"
       r="64.075058"
       inkscape:export-xdpi="90"
       inkscape:export-ydpi="90" />
    <path
       sodipodi:nodetypes="ccccc"
       inkscape:connector-curvature="0"
       id="path4814-1"
       d="m 84.08424,1024.0562 c -21.74774,3.0688 -43.90018,2.308 -65.72445,0.6387 14.04431,17.9105 38.45322,26.9363 60.99997,22.586 21.76014,-3.7402 40.83336,-19.6756 48.51661,-40.3503 -12.92189,9.166 -28.18857,14.7292 -43.79213,17.1256 z"
       style="fill:#4c5263;fill-opacity:1;stroke:none;stroke-width:3;stroke-miterlimit:4;stroke-dasharray:none;stroke-opacity:1" />
    <path
       style="fill:#ffffff;stroke-width:0.20212606"
       d="m 43.05508,105.2689 c -7.287291,-0.27098 -12.970726,-0.55255 -18.191345,-0.90123 -9.170367,-0.61248 -9.772404,-0.67948 -10.102501,-1.12446 -0.671046,-0.90458 -2.782105,-4.616405 -3.919086,-6.89084 C 9.6267864,93.921137 9.5959714,93.881581 8.7468959,93.66283 6.7118865,93.138539 4.1458144,92.138165 4.1458144,91.869115 c 0,-0.06839 0.6165123,-1.256988 1.3700274,-2.641325 L 6.8858691,86.710813 6.1394829,83.770744 C 2.8826382,70.941793 3.5877088,57.883434 8.2081008,45.458614 9.3261568,42.452019 12.099277,36.845746 13.783552,34.187016 20.192527,24.070053 28.983131,16.052231 39.155211,11.045774 l 2.770294,-1.3634721 1.575481,-4.8043414 1.575482,-4.80434163 0.448412,0.31407981 c 0.368179,0.25788319 2.316496,2.75118702 4.402486,5.63395992 l 0.404252,0.5586637 1.515945,-0.413158 C 60.36938,3.8446155 70.833177,3.4622098 79.842022,5.1440897 108.8686,10.563123 130.47523,35.48928 131.8211,65.108963 l 0.13449,2.960017 1.99044,1.910465 1.99043,1.910465 -1.31953,2.528013 c -2.5154,4.819144 -4.93985,8.121103 -8.43385,11.486421 -11.62011,11.192173 -30.903582,17.347826 -59.782441,19.083706 -3.529535,0.21215 -19.897588,0.40906 -23.345559,0.28085 z m 48.331329,-8.653326 c 5.197522,-0.611967 10.565431,-1.876756 14.664081,-3.455169 3.01142,-1.159706 4.59688,-1.946607 4.72306,-2.344151 0.2523,-0.794921 -3.64885,-8.107979 -7.27084,-13.629851 C 98.310987,69.27141 92.684697,62.517432 84.302586,54.137969 78.222402,48.059705 72.060169,42.494443 72.060169,43.081549 c 0,0.109014 0.351111,0.961321 0.780249,1.894014 3.272016,7.111455 5.539028,15.211079 6.527982,23.323295 0.39166,3.212721 0.33767,11.827153 -0.09451,15.079655 -0.578881,4.356538 -1.684927,9.044744 -2.887763,12.240386 -0.267059,0.709513 -0.485563,1.34609 -0.485563,1.414617 0,0.241337 12.82659,-0.104837 15.485845,-0.417942 z M 70.910718,95.73747 C 70.867005,95.209415 70.197707,85.454307 69.423388,74.05945 66.986833,38.203131 67.256578,41.401788 66.551767,40.007688 65.275602,37.483459 61.513061,31.430588 56.496214,23.831126 53.63403,19.495522 50.364653,14.401945 49.230932,12.512067 48.097211,10.622188 47.107938,9.0538918 47.032547,9.0269638 46.957158,9.0000358 46.587045,10.136995 46.210078,11.553539 44.534703,17.849123 41.48677,26.383012 37.998951,34.543807 32.246993,48.002235 25.218406,61.764743 13.297114,82.91188 c -1.836004,3.256882 -3.282371,5.977422 -3.214148,6.045643 0.292195,0.292196 10.176196,2.521517 12.7805,2.882621 8.63765,1.197672 24.289435,2.871995 38.686148,4.138385 3.168326,0.278698 6.078941,0.539938 6.468034,0.580535 0.389092,0.04059 1.21709,0.08836 1.839996,0.106156 l 1.132552,0.03235 z M 117.5568,87.1868 c 2.50577,-1.505813 4.30411,-2.951768 6.57286,-5.284909 2.25985,-2.323981 3.76476,-4.273741 5.54943,-7.189844 l 1.20346,-1.966416 -0.86088,-0.761684 C 126.37675,68.75905 118.07739,64.136256 110.76731,61.259151 107.19097,59.851573 100.57829,57.63382 95.607854,56.174983 93.495637,55.555041 91.596895,54.995244 91.388426,54.93099 c -0.818889,-0.252396 0.02594,0.3989 4.069788,3.137486 10.426146,7.060821 14.186116,10.876102 17.651506,17.911172 1.63036,3.309796 2.21111,5.616624 2.35344,9.34833 0.0604,1.584163 0.17375,2.880296 0.25184,2.880296 0.0781,0 0.90691,-0.459663 1.8418,-1.021474 z"
       id="path3714"
       inkscape:connector-curvature="0"
       transform="translate(0,916.36218)" />
    <path
       style="fill:#ffffff;stroke-width:0.20212606"
       d="m 63.267685,131.75293 c -0.222338,-0.0327 -1.404776,-0.16539 -2.627638,-0.29478 -4.672237,-0.49435 -10.285831,-1.84551 -15.159454,-3.6488 -2.936156,-1.08641 -8.967741,-4.06898 -11.622249,-5.74711 -4.165221,-2.63318 -8.361226,-6.02877 -11.521185,-9.32346 -2.178662,-2.27155 -3.726231,-4.09519 -3.590463,-4.23095 0.05793,-0.0579 2.003703,0.0333 4.32394,0.20272 23.800727,1.73798 44.051711,1.43221 60.611781,-0.91518 8.137983,-1.15356 17.265373,-3.59577 24.911423,-6.66553 5.47711,-2.198958 12.57614,-5.934808 17.2181,-9.060992 1.00809,-0.678912 1.83289,-1.183943 1.83289,-1.122291 0,0.332729 -1.82641,4.365845 -2.95459,6.524384 -3.25096,6.220019 -7.04724,11.280299 -12.23314,16.306279 -12.21895,11.84213 -27.974994,18.18223 -44.888487,18.06276 -2.143171,-0.0151 -4.078589,-0.0543 -4.300928,-0.0871 z"
       id="path3716"
       inkscape:connector-curvature="0"
       transform="translate(0,916.36218)" />
  </g>
</svg>
